<?xml version="1.0" encoding="UTF-8"?>
<svg version="1.1" xmlns="http://www.w3.org/2000/svg" width="1920" height="1080">
<path d="M0 0 C633.6 0 1267.2 0 1920 0 C1920 356.4 1920 712.8 1920 1080 C1286.4 1080 652.8 1080 0 1080 C0 723.6 0 367.2 0 0 Z " fill="#FEFEFE" transform="translate(0,0)"/>
<path d="M0 0 C38.07195886 -1.07942965 75.70136751 7.56258722 104.33203125 33.67626953 C115.10966794 43.98016395 121.74120809 55.12227946 126.48828125 69.08251953 C126.82988281 70.07251953 127.17148437 71.06251953 127.5234375 72.08251953 C132.08885726 88.05087144 130.82054915 106.49047545 125.48828125 122.08251953 C124.97974609 123.64099609 124.97974609 123.64099609 124.4609375 125.23095703 C115.90810344 148.42405152 95.27961531 165.16001413 73.44067383 175.24438477 C34.50657009 192.16266882 -11.81547167 192.93817028 -51.51171875 178.08251953 C-75.22854206 168.71782872 -96.15949814 152.66138807 -107.234375 129.22314453 C-109.50511532 123.64003988 -111.07131414 117.92723822 -112.51171875 112.08251953 C-112.73859375 111.24205078 -112.96546875 110.40158203 -113.19921875 109.53564453 C-117.77451548 90.59899973 -113.58285188 69.5645229 -104.19921875 52.83251953 C-100.73823379 47.19905483 -96.86001068 42.05805045 -92.51171875 37.08251953 C-91.94324219 36.41865234 -91.37476563 35.75478516 -90.7890625 35.07080078 C-70.09997424 12.65383263 -36.2506479 1.79975495 -6.51171875 0.21142578 C-4.34130356 0.13559606 -2.17057219 0.07131157 0 0 Z " fill="#FEFEFE" transform="translate(787.51171875,413.91748046875)"/>
<path d="M0 0 C10.23 0 20.46 0 31 0 C37.47521798 11.76594487 43.84997607 23.56101532 50 35.5 C54.17206667 43.59918568 58.40850976 51.64955466 62.8125 59.625 C68.28119217 69.53700455 73.45092796 79.59245287 78.60992432 89.66760254 C83.47993919 99.17315308 88.44998662 108.60651687 93.61328125 117.95703125 C97.53138501 125.07599026 101.27892017 132.27637032 105 139.5 C109.21480333 147.68154194 113.49434845 155.81513807 117.9375 163.875 C123.39166175 173.7707248 128.59337908 183.78826904 133.74975586 193.84130859 C137.0421694 200.25156161 140.39673649 206.60720205 143.93798828 212.8840332 C145 215 145 215 145 217 C136.09 217 127.18 217 118 217 C110.94913759 204.62181933 103.96862444 192.21498396 97.1875 179.6875 C96.57116699 178.55521973 95.95483398 177.42293945 95.31982422 176.25634766 C94.75408691 175.20624512 94.18834961 174.15614258 93.60546875 173.07421875 C93.10168701 172.14182373 92.59790527 171.20942871 92.07885742 170.2487793 C91 168 91 168 91 166 C41.17 166 -8.66 166 -60 166 C-60.66 167.98 -61.32 169.96 -62 172 C-62.74530074 173.55107508 -63.53336594 175.08234659 -64.36328125 176.58984375 C-64.83217773 177.44626465 -65.30107422 178.30268555 -65.78417969 179.18505859 C-66.28852539 180.09336426 -66.79287109 181.00166992 -67.3125 181.9375 C-67.83360352 182.88447754 -68.35470703 183.83145508 -68.89160156 184.80712891 C-74.84090895 195.58693455 -80.91984815 206.29364565 -87 217 C-95.91 217 -104.82 217 -114 217 C-112.61299608 212.83898824 -111.36920942 209.51954326 -109.3828125 205.71875 C-108.86452881 204.72343262 -108.34624512 203.72811523 -107.81225586 202.70263672 C-107.25546143 201.6457666 -106.69866699 200.58889648 -106.125 199.5 C-105.25597046 197.83928467 -105.25597046 197.83928467 -104.36938477 196.14501953 C-100.15056363 188.11130083 -95.83062672 180.13601176 -91.45825195 172.18505859 C-87.28886064 164.58548589 -83.28696818 156.90475905 -79.30200195 149.20727539 C-75.99585893 142.84460231 -72.55774781 136.57590378 -69.00439453 130.34863281 C-66.95256399 126.73898291 -65.01241324 123.10417054 -63.1875 119.375 C-60.43644302 113.7595183 -57.44962817 108.29054041 -54.4375 102.8125 C-48.27519872 91.59206899 -42.37202663 80.24527118 -36.49023438 68.87597656 C-29.94917486 56.25250326 -23.24982536 43.71400173 -16.52688599 31.18673706 C-10.96332414 20.81935933 -5.46259513 10.4209507 0 0 Z " fill="#040404" transform="translate(1332,399)"/>
<path d="M0 0 C0.94385559 -0.00570007 1.88771118 -0.01140015 2.86016846 -0.01727295 C4.85712579 -0.02668965 6.85409843 -0.03324364 8.85107422 -0.03710938 C11.83981276 -0.04671175 14.82783176 -0.07772371 17.81640625 -0.109375 C30.2244458 -0.17705299 41.96194173 0.86512406 54.140625 3.203125 C56.01645264 3.53751587 56.01645264 3.53751587 57.93017578 3.87866211 C83.65077886 8.57236298 109.37920585 20.93787561 128.140625 39.203125 C128.97207031 39.97269531 129.80351563 40.74226563 130.66015625 41.53515625 C149.39580525 59.34985169 160.68197625 84.3282704 161.34375 110.1796875 C161.6203436 133.40485232 161.6203436 133.40485232 158.140625 144.203125 C157.91487793 144.91984375 157.68913086 145.6365625 157.45654297 146.375 C151.95489502 163.51488581 144.18644088 177.06715458 131.49511719 189.82958984 C130.32232453 191.01887094 129.18496461 192.24289782 128.0546875 193.47265625 C102.10319078 221.23090274 58.83420386 231.06194226 22.47558594 232.33105469 C-23.78163084 233.27758822 -68.50127428 224.13260708 -103.28857422 191.73095703 C-122.98040776 172.57778726 -133.78978392 146.39834937 -134.3515625 119.14331055 C-134.41575478 87.79540946 -124.11604682 61.59084018 -102.01953125 39.3046875 C-78.93985032 16.77991932 -48.10647457 6.17883801 -16.859375 1.203125 C-15.81265625 1.026604 -14.7659375 0.85008301 -13.6875 0.66821289 C-9.10487934 0.11145955 -4.61180254 0.02205704 0 0 Z M-87.7734375 59.66796875 C-99.26795308 73.63789498 -107.92491004 89.8436369 -108.859375 108.203125 C-108.92382812 109.35296875 -108.98828125 110.5028125 -109.0546875 111.6875 C-109.77823431 136.09514558 -101.14568508 157.81285443 -84.48950195 175.61791992 C-61.13787699 199.6987135 -24.52248375 209.82816241 8.17553711 210.62744141 C45.55176305 210.79362635 83.81574168 202.16847038 111.140625 175.203125 C121.05777837 165.15548277 127.76435573 154.65253862 132.140625 141.203125 C132.46160156 140.25566406 132.78257812 139.30820312 133.11328125 138.33203125 C137.70232018 122.25972282 136.50680328 103.89432618 131.140625 88.203125 C130.80160156 87.16414063 130.46257812 86.12515625 130.11328125 85.0546875 C121.62368751 62.03308455 101.05339052 45.21363451 79.453125 35.0546875 C27.5125283 11.94064192 -47.03248881 16.66363402 -87.7734375 59.66796875 Z " fill="#030303" transform="translate(781.859375,391.796875)"/>
<path d="M0 0 C0.7781456 -0.0033284 1.5562912 -0.0066568 2.35801697 -0.01008606 C3.99933283 -0.01512408 5.64065883 -0.01749536 7.28198242 -0.01733398 C9.74611124 -0.01950375 12.20977926 -0.03764656 14.67382812 -0.05664062 C24.22447464 -0.09104155 33.29433636 0.45818589 42.71484375 2.16796875 C43.88744751 2.37111694 43.88744751 2.37111694 45.08374023 2.57836914 C70.3077624 7.2396891 97.12234246 20.22218363 112.71484375 41.16796875 C114.47538791 43.78402031 116.13876255 46.43706308 117.71484375 49.16796875 C114.06196103 52.95766356 110.24145525 56.31077806 106.08984375 59.54296875 C105.5175 60.00574219 104.94515625 60.46851563 104.35546875 60.9453125 C102.67578125 62.25390625 102.67578125 62.25390625 99.71484375 64.16796875 C95.89759068 62.89555106 95.30221722 61.41492454 93.08984375 58.10546875 C78.93429227 38.22090097 55.04121164 29.51537133 32.05078125 24.34375 C6.82649285 20.09956782 -22.90815489 22.77704755 -44.2421875 37.76953125 C-50.38558538 42.61169595 -55.06556226 48.5952363 -57.28515625 56.16796875 C-58.12666683 63.9430524 -57.54043686 71.53252531 -52.94921875 78.0703125 C-41.91907247 90.36489018 -23.0365292 93.17757579 -7.55078125 95.53515625 C-5.6131291 95.84158911 -3.67547771 96.14802688 -1.73786259 96.45469379 C0.28435845 96.77320266 2.30718054 97.08759086 4.33023071 97.40078735 C8.51178089 98.04868597 12.69103944 98.71056305 16.86987305 99.37573242 C17.90850321 99.54100701 17.90850321 99.54100701 18.96811581 99.70962048 C20.35863176 99.93092283 21.74914076 100.15226884 23.13964272 100.37365913 C25.20115026 100.70156821 27.26280505 101.02853549 29.32450867 101.35520935 C110.42435539 114.21050402 110.42435539 114.21050402 127.66015625 136.70703125 C133.91832314 146.00263479 136.29250369 154.82496233 136.21484375 165.98046875 C136.20912354 166.94243164 136.20340332 167.90439453 136.19750977 168.89550781 C135.84045392 183.18255047 129.65874451 194.08764376 119.90234375 204.35546875 C108.46543247 215.22598061 94.3718283 222.11948331 79.33984375 226.48046875 C78.55182373 226.71064697 77.76380371 226.9408252 76.9519043 227.17797852 C61.88914175 231.27453316 46.90443162 232.75200795 31.33984375 232.66796875 C30.47687683 232.6665387 29.61390991 232.66510864 28.72479248 232.66363525 C6.55068941 232.57334109 -14.54340589 229.20714649 -35.28515625 221.16796875 C-36.32800781 220.7915625 -37.37085938 220.41515625 -38.4453125 220.02734375 C-64.54668451 210.05050707 -85.52494674 191.57452271 -99.44921875 167.578125 C-100.28515625 165.16796875 -100.28515625 165.16796875 -99.59570312 163.20581055 C-98.04863228 160.80018455 -96.54761194 159.70420765 -94.15234375 158.15234375 C-93.34667969 157.62382813 -92.54101562 157.0953125 -91.7109375 156.55078125 C-90.86917969 156.01195312 -90.02742188 155.473125 -89.16015625 154.91796875 C-88.31066406 154.36367188 -87.46117187 153.809375 -86.5859375 153.23828125 C-84.49097792 151.87302669 -82.3907615 150.51672342 -80.28515625 149.16796875 C-77.25633225 151.99595487 -75.97854676 154.80804053 -74.28515625 158.60546875 C-64.35815918 179.4926754 -42.33615617 192.60950019 -21.26416016 200.25341797 C-13.76104825 202.81777267 -6.06042124 204.64520408 1.71484375 206.16796875 C2.98606079 206.43613403 2.98606079 206.43613403 4.28295898 206.7097168 C13.28403354 208.44084096 22.14759741 208.52469148 31.27734375 208.48046875 C32.47296936 208.47723602 32.47296936 208.47723602 33.69274902 208.47393799 C51.96504348 208.39458098 67.847074 206.48574688 84.71484375 199.16796875 C85.53597656 198.81605469 86.35710937 198.46414063 87.203125 198.1015625 C97.40769887 193.36584764 104.27876797 186.33890951 109.15234375 176.16796875 C110.41234476 169.44796337 110.47421658 162.49153149 107.71484375 156.16796875 C91.82990725 134.24067602 59.59060291 131.94632855 34.9140625 127.99414062 C29.89265155 127.19366166 24.86904938 126.40729719 19.8455658 125.61994934 C14.99890099 124.8574681 10.15394448 124.08442639 5.30911255 123.31039429 C2.90501076 122.92912872 0.50013545 122.55270342 -1.9055481 122.18154907 C-60.86553569 113.08216622 -60.86553569 113.08216622 -77.62890625 90.75390625 C-85.08106956 79.11868901 -86.22126424 64.0587147 -83.6015625 50.67578125 C-77.96214405 32.65772231 -65.47552318 20.9045344 -49.46875 11.83203125 C-34.56746999 4.04314133 -16.79180418 0.02562289 0 0 Z " fill="#030303" transform="translate(455.28515625,391.83203125)"/>
<path d="M0 0 C8.58 0 17.16 0 26 0 C26.06966717 19.41160236 26.12309611 38.823169 26.15543652 58.23487091 C26.17085679 67.2495603 26.19185289 76.26417023 26.22631836 85.27880859 C26.25636984 93.14274227 26.2756101 101.00661835 26.28226548 108.87060785 C26.28615127 113.02838943 26.29518043 117.18600633 26.31719017 121.34373474 C26.33780524 125.27043651 26.34378427 129.19690839 26.33932304 133.12365913 C26.34013722 134.55212727 26.3459521 135.98060445 26.35761642 137.40902519 C26.54711592 161.84852222 20.22212033 185.49295186 2.828125 203.3046875 C-14.61539025 219.92903215 -37.38854879 224.57512439 -60.76953125 224.35083008 C-82.94173365 223.72887361 -104.39779556 215.92262205 -120.65625 200.53515625 C-131.21153551 189.11785575 -138.89048078 174.24736663 -142 159 C-141.81054688 156.97387695 -141.81054688 156.97387695 -141 155 C-139.08227539 153.71972656 -139.08227539 153.71972656 -136.59765625 152.640625 C-135.70755859 152.24746094 -134.81746094 151.85429688 -133.90039062 151.44921875 C-132.96388672 151.05347656 -132.02738281 150.65773438 -131.0625 150.25 C-130.12986328 149.83878906 -129.19722656 149.42757812 -128.23632812 149.00390625 C-121.33532755 146 -121.33532755 146 -119 146 C-118.76216797 147.30710937 -118.76216797 147.30710937 -118.51953125 148.640625 C-115.13886943 165.89881021 -108.52232707 180.39768569 -94 191 C-78.18330545 200.20463292 -59.70005798 202.54878285 -41.875 198.75 C-28.4343072 195.09208993 -17.76688497 188.79478812 -10 177 C-4.4671777 166.79661342 -0.90962814 156.19614646 -0.84178162 144.54592896 C-0.8319928 143.26714371 -0.82220398 141.98835846 -0.81211853 140.67082214 C-0.8062155 139.26638831 -0.80040498 137.86195409 -0.79467773 136.45751953 C-0.78509082 134.96896599 -0.77508027 133.48041513 -0.76467896 131.99186707 C-0.73771193 127.96137634 -0.71665812 123.93087401 -0.69667697 119.90034342 C-0.67476665 115.68426316 -0.64740271 111.46821836 -0.62062073 107.25216675 C-0.57076195 99.27316856 -0.52579791 91.29415062 -0.48259836 83.3151139 C-0.43316766 74.22927175 -0.3782712 65.14346518 -0.32291877 56.05765748 C-0.20920337 37.37180452 -0.10253557 18.68591742 0 0 Z " fill="#040404" transform="translate(1140,399)"/>
<path d="M0 0 C3.40985216 3.26843787 5.61184575 6.56913029 7.75 10.75 C8.09796631 11.41628418 8.44593262 12.08256836 8.80444336 12.76904297 C11.43352214 17.82792906 13.97676113 22.92985451 16.51123047 28.03662109 C24.54612881 44.17866721 32.78306275 60.24608643 41.64404297 75.95092773 C44.58060142 81.17701677 47.30653241 86.4831936 49.94506836 91.86523438 C51.80663005 95.651718 53.72874681 99.39632499 55.71875 103.1171875 C56.41097656 104.41281616 56.41097656 104.41281616 57.1171875 105.73461914 C58.0234507 107.42410239 58.93473605 109.11090344 59.8515625 110.79467773 C60.26148438 111.55981689 60.67140625 112.32495605 61.09375 113.11328125 C61.46177734 113.79173096 61.82980469 114.47018066 62.20898438 115.16918945 C63 117 63 117 63 120 C21.42 120 -20.16 120 -63 120 C-58.26344417 110.52688834 -53.52695596 101.07286797 -48.625 91.6875 C-48.06756104 90.61846436 -47.51012207 89.54942871 -46.93579102 88.44799805 C-45.29211437 85.29783351 -43.64619814 82.14884739 -42 79 C-41.54834473 78.13407227 -41.09668945 77.26814453 -40.63134766 76.37597656 C-35.80950285 67.13333373 -30.89158478 57.950997 -25.875 48.8125 C-22.13134036 41.99232684 -18.51550761 35.13893905 -15.09521484 28.15161133 C-10.38072558 18.60372863 -5.144839 9.32050993 0 0 Z " fill="#FCFCFC" transform="translate(1347,422)"/>
<path d="M0 0 C4.08420811 2.44439472 7.05770986 5.04757814 9.70703125 9.05859375 C10.79879816 14.66478334 11.02589295 20.52290262 8.34375 25.6796875 C5.05493457 29.65397666 1.90482195 32.20997486 -3.29296875 33.05859375 C-9.16843692 33.52490075 -13.03849053 33.0328267 -18.29296875 30.05859375 C-21.81459467 26.72806381 -24.05949339 23.49668894 -24.53125 18.5703125 C-24.69045797 12.51203022 -24.53482505 8.75902911 -20.29296875 4.05859375 C-14.54229585 -1.13103789 -7.42038644 -3.04653004 0 0 Z " fill="#040404" transform="translate(1551.29296875,586.94140625)"/>
<path d="M0 0 C1.32 1.32 2.64 2.64 4 4 C2.35 4.33 0.7 4.66 -1 5 C-1 1 -1 1 0 0 Z " fill="#121212" transform="translate(404,472)"/>
<path d="M0 0 C-1.04874998 2.62187494 -1.64931313 3.79371361 -4.125 5.25 C-4.74375 5.4975 -5.3625 5.745 -6 6 C-5.6875 4.125 -5.6875 4.125 -5 2 C-2 0 -2 0 0 0 Z " fill="#171717" transform="translate(908,585)"/>
</svg>
